<svg id="Layer_1" enable-background="new 0 0 512 512" height="512" viewBox="0 0 512 512" width="512" xmlns="http://www.w3.org/2000/svg"><g id="XMLID_765_"><g id="XMLID_162_"><path id="XMLID_196_" d="m394 0h-276c-27.57 0-50 22.43-50 50v412c0 27.57 22.43 50 50 50h276c27.57 0 50-22.43 50-50v-412c0-27.57-22.43-50-50-50zm30 158v52h-36v-52zm0 72v52h-36v-52zm-36 72h36v52h-36zm36-164h-36v-52h36zm-36 236h36v52h-36zm36-324v16h-36v-46h6c16.542 0 30 13.458 30 30zm-56-30v118h-66.937c-5.523 0-10 4.478-10 10s4.477 10 10 10h66.937v196h-224v-196h67.063c5.523 0 10-4.478 10-10s-4.477-10-10-10h-67.063v-118zm-244 262h-36v-52h36zm0-72h-36v-52h36zm-36 92h36v52h-36zm36-164h-36v-52h36zm-36 236h36v52h-36zm30-354h6v46h-36v-16c0-16.542 13.458-30 30-30zm-30 442v-16h36v46h-6c-16.542 0-30-13.458-30-30zm56 30v-118h224v118zm250 0h-6v-46h36v16c0 16.542-13.458 30-30 30z"/><path id="XMLID_379_" d="m180.214 237.134c-2.621 8.098.141 16.554 7.038 21.541l24.265 17.549-9.283 28.358c-2.651 8.098.091 16.567 6.984 21.576 6.894 5.008 15.795 4.999 22.679-.024l24.103-17.591 24.102 17.591c3.447 2.517 7.4 3.774 11.355 3.774 3.941 0 7.883-1.25 11.324-3.75 6.894-5.009 9.635-13.479 6.984-21.577l-9.283-28.357 24.265-17.549c6.897-4.987 9.659-13.443 7.038-21.541-2.622-8.098-9.815-13.33-18.327-13.33h-29.968l-9.163-28.345c-2.619-8.104-9.813-13.339-18.329-13.339s-15.71 5.235-18.329 13.338l-9.163 28.346h-29.968c-8.509 0-15.702 5.232-18.324 13.33zm55.572 6.67c4.338 0 8.181-2.797 9.515-6.924l10.699-33.099 10.699 33.099c1.334 4.127 5.177 6.924 9.515 6.924h34.967l-28.333 20.492c-3.523 2.548-4.996 7.081-3.644 11.214l10.842 33.122-28.15-20.547c-1.756-1.282-3.826-1.923-5.896-1.923s-4.139.641-5.896 1.923l-28.151 20.547 10.842-33.122c1.353-4.133-.12-8.666-3.644-11.214l-28.333-20.492z"/><path id="XMLID_380_" d="m256.06 158.06c2.63 0 5.21-1.06 7.07-2.93 1.87-1.86 2.93-4.43 2.93-7.07 0-2.63-1.06-5.2-2.93-7.069-1.86-1.86-4.44-2.931-7.07-2.931s-5.21 1.07-7.07 2.931c-1.86 1.859-2.93 4.439-2.93 7.069 0 2.641 1.07 5.21 2.93 7.07 1.86 1.87 4.44 2.93 7.07 2.93z"/></g></g></svg>